<svg width="24" height="24" viewBox="0 0 24 24" fill="none" xmlns="http://www.w3.org/2000/svg">
<path d="M7.48103 19.3636C7.48103 20.2674 6.76279 21 5.87681 21C4.99082 21 4.27259 20.2674 4.27259 19.3636C4.27259 18.4599 4.99082 17.7273 5.87681 17.7273C6.76279 17.7273 7.48103 18.4599 7.48103 19.3636Z" fill="white"/>
<path d="M15.5021 19.3636C15.5021 20.2674 14.7839 21 13.8979 21C13.0119 21 12.2937 20.2674 12.2937 19.3636C12.2937 18.4599 13.0119 17.7273 13.8979 17.7273C14.7839 17.7273 15.5021 18.4599 15.5021 19.3636Z" fill="white"/>
<path fill-rule="evenodd" clip-rule="evenodd" d="M17.5711 3H23V4.63636H18.8036L15.5952 16.9091H4.79179L1 6.27273H16.7155L17.5711 3ZM16.2877 7.90909H3.29034L5.91543 15.2727H14.3627L16.2877 7.90909Z" fill="white"/>
</svg>
