<svg width="24" height="24" viewBox="0 0 24 24" fill="none" xmlns="http://www.w3.org/2000/svg">
<path fill-rule="evenodd" clip-rule="evenodd" d="M1 16.3942C1 14.1741 2.82924 12.3743 5.08571 12.3743H8.29473V14.2297H5.08571C3.87069 14.2297 2.88571 15.1988 2.88571 16.3942V16.9801C2.88571 18.1756 3.87069 19.1447 5.08571 19.1447H8.29473V21H5.08571C2.82923 21 1 19.2002 1 16.9801V16.3942Z" fill="white"/>
<path fill-rule="evenodd" clip-rule="evenodd" d="M7.35186 11.1863C7.35186 8.96614 9.1811 7.16636 11.4376 7.16636H14.6466V9.0217H11.4376C10.2225 9.0217 9.23757 9.99081 9.23757 11.1863V19.1447H14.6466V21H7.35186V11.1863Z" fill="white"/>
<path fill-rule="evenodd" clip-rule="evenodd" d="M13.7038 7.01989C13.7038 4.79976 15.533 3 17.7895 3H18.9143C21.1708 3 23 4.79977 23 7.01989V16.9801C23 19.2002 21.1708 21 18.9143 21H13.7038V7.01989ZM17.7895 4.85534C16.5744 4.85534 15.5895 5.82444 15.5895 7.01989V19.1447H18.9143C20.1293 19.1447 21.1143 18.1756 21.1143 16.9801V7.01989C21.1143 5.82444 20.1293 4.85534 18.9143 4.85534H17.7895Z" fill="white"/>
</svg>
