<svg width="24" height="24" viewBox="0 0 24 24" fill="none" xmlns="http://www.w3.org/2000/svg">
<path fill-rule="evenodd" clip-rule="evenodd" d="M20.1414 5.23123L20.1712 5.29054L20.3356 5.46266C21.8687 7.06824 21.7762 9.62089 20.1376 11.1425L20.1115 11.1667L12.01 19.3987L3.87058 11.1289L3.84452 11.1047C3.03432 10.3524 2.57143 9.27053 2.57143 8.166C2.57143 5.94405 4.38031 4.09664 6.69484 4.09664H6.73281C7.49352 4.09664 8.31972 4.39366 9.12264 4.85659C9.91179 5.31157 10.5676 5.86226 10.9626 6.22109L12.0347 7.19497L13.0843 6.19612C13.4575 5.8409 14.1063 5.29452 14.8922 4.84541C15.6898 4.38964 16.5191 4.09664 17.2872 4.09664H17.3252C18.4124 4.09664 19.4248 4.52003 20.1414 5.23123ZM11.7443 21.3867L2.78438 12.2833C1.64542 11.2256 1 9.71471 1 8.166C1 5.03081 3.54369 2.5 6.69484 2.5H6.73281C9.01074 2.5 11.1368 4.23757 12.01 5.03081C12.8832 4.1998 15.0093 2.5 17.2872 2.5H17.3252C18.8438 2.5 20.2865 3.10437 21.3116 4.16203C21.3875 4.23757 21.4255 4.27535 21.4635 4.35089C23.6275 6.6173 23.4756 10.2058 21.1977 12.3211L12.2758 21.3867C12.1239 21.5378 11.8961 21.5378 11.7443 21.3867Z" fill="white"/>
</svg>
