<svg width="22" height="18" viewBox="0 0 22 18" fill="none" xmlns="http://www.w3.org/2000/svg">
<path d="M21.0467 17.4683C19.8 17.2603 18.3333 16.4285 17.6 14.9728C20.24 13.4478 22 11.0216 22 8.31822C22 3.7432 17.0867 0 11 0C4.91333 0 0 3.7432 0 8.31822C0 12.8932 4.91333 16.6364 11 16.6364C11.8067 16.6364 12.6133 16.5671 13.3467 16.4285C15.4733 17.8149 17.9667 18.2308 20.9733 17.8842C21.12 17.8842 21.2667 17.8149 21.2667 17.6762C21.2667 17.6069 21.1933 17.4683 21.0467 17.4683ZM6.6 9.70459C5.79333 9.70459 5.13333 9.08073 5.13333 8.31822C5.13333 7.55572 5.79333 6.93185 6.6 6.93185C7.40667 6.93185 8.06667 7.55572 8.06667 8.31822C8.06667 9.08073 7.40667 9.70459 6.6 9.70459ZM11 9.70459C10.1933 9.70459 9.53333 9.08073 9.53333 8.31822C9.53333 7.55572 10.1933 6.93185 11 6.93185C11.8067 6.93185 12.4667 7.55572 12.4667 8.31822C12.4667 9.08073 11.8067 9.70459 11 9.70459ZM15.4 9.70459C14.5933 9.70459 13.9333 9.08073 13.9333 8.31822C13.9333 7.55572 14.5933 6.93185 15.4 6.93185C16.2067 6.93185 16.8667 7.55572 16.8667 8.31822C16.8667 9.08073 16.2067 9.70459 15.4 9.70459Z" fill="white"/>
</svg>
