<svg width="22" height="22" viewBox="0 0 22 22" fill="none" xmlns="http://www.w3.org/2000/svg">
<path fill-rule="evenodd" clip-rule="evenodd" d="M10.3554 0V4.55469H6.86873C7.69382 2.19755 8.94404 0.394195 10.3554 0ZM4.57127 10.3555H0C0.0951328 8.73297 0.609512 7.20221 1.33732 5.84375H5.13997C4.81091 7.22154 4.6136 8.74178 4.57127 10.3555ZM0 11.6445H4.57127C4.6136 13.2582 4.81095 14.7785 5.14001 16.1562H1.33732C0.609512 14.7978 0.0951328 13.267 0 11.6445ZM10.3553 10.3555V5.84375H6.47265C6.11988 7.20913 5.90623 8.7432 5.85953 10.3555H10.3553ZM10.3554 22V17.4453H6.86873C7.69382 19.8024 8.94404 21.6058 10.3554 22ZM11.6445 4.55469V0C13.0559 0.394195 14.3061 2.19755 15.1312 4.55469H11.6445ZM16.1404 10.3555C16.0936 8.7432 15.88 7.20913 15.5272 5.84375H11.6445V10.3555H16.1404ZM5.85953 11.6445H10.3553V16.1562H6.47265C6.11988 14.7909 5.90628 13.2569 5.85953 11.6445ZM16.5005 4.55469H19.8413C18.5072 2.72968 16.629 1.18788 14.4409 0.46162C15.2818 1.45437 15.9852 2.94723 16.5005 4.55469ZM2.15873 17.4453H5.49955C6.01492 19.0528 6.71828 20.5456 7.55922 21.5384C5.37108 20.8121 3.49287 19.2703 2.15873 17.4453ZM5.49955 4.55469C6.01488 2.94723 6.71828 1.45437 7.55917 0.46162C5.37108 1.18788 3.49287 2.72968 2.15873 4.55469H5.49955ZM14.4407 21.5384C15.2816 20.5456 15.985 19.0528 16.5004 17.4453H19.8412C18.507 19.2703 16.6288 20.8121 14.4407 21.5384ZM11.6445 11.6445V16.1562H15.5272C15.88 14.7909 16.0936 13.2569 16.1404 11.6445H11.6445ZM17.4288 10.3555C17.3865 8.74178 17.1891 7.22154 16.8601 5.84375H20.6627C21.3905 7.20221 21.9049 8.73297 22.0001 10.3555H17.4288ZM11.6445 17.4453V22C13.0559 21.6058 14.3061 19.8024 15.1312 17.4453H11.6445ZM17.4288 11.6445H22.0001C21.9049 13.267 21.3905 14.7978 20.6628 16.1562H16.8601C17.1891 14.7785 17.3865 13.2582 17.4288 11.6445Z" fill="white"/>
</svg>
