<svg width="24" height="25" viewBox="0 0 24 25" fill="none" xmlns="http://www.w3.org/2000/svg">
<path fill-rule="evenodd" clip-rule="evenodd" d="M10.635 19.0453C15.0694 19.0453 18.6642 15.4747 18.6642 11.0701C18.6642 6.66561 15.0694 3.09502 10.635 3.09502C6.20063 3.09502 2.60584 6.66561 2.60584 11.0701C2.60584 15.4747 6.20063 19.0453 10.635 19.0453ZM10.635 20.6403C15.9563 20.6403 20.2701 16.3556 20.2701 11.0701C20.2701 5.7847 15.9563 1.5 10.635 1.5C5.31375 1.5 1 5.7847 1 11.0701C1 16.3556 5.31375 20.6403 10.635 20.6403Z" fill="#00397A"/>
<path fill-rule="evenodd" clip-rule="evenodd" d="M16.3415 16.8863C16.655 16.5749 17.1634 16.5749 17.477 16.8863L22.7648 22.1386C23.0784 22.45 23.0784 22.955 22.7648 23.2664C22.4513 23.5779 21.9429 23.5779 21.6293 23.2664L16.3415 18.0142C16.0279 17.7027 16.0279 17.1978 16.3415 16.8863Z" fill="#00397A"/>
</svg>
