<svg width="24" height="24" viewBox="0 0 24 24" fill="none" xmlns="http://www.w3.org/2000/svg">
<path fill-rule="evenodd" clip-rule="evenodd" d="M16.7143 7.28571C16.7143 9.88934 14.6036 12 12 12C9.39637 12 7.28571 9.88934 7.28571 7.28571C7.28571 4.68209 9.39637 2.57143 12 2.57143C14.6036 2.57143 16.7143 4.68209 16.7143 7.28571ZM18.2857 7.28571C18.2857 10.7572 15.4715 13.5714 12 13.5714C8.5285 13.5714 5.71429 10.7572 5.71429 7.28571C5.71429 3.81421 8.5285 1 12 1C15.4715 1 18.2857 3.81421 18.2857 7.28571ZM1.1114 21.4286C1.03798 21.9418 1 22.4665 1 23H23C23 22.4665 22.962 21.9418 22.8886 21.4286C22.3798 17.8717 20.1694 14.8637 17.1085 13.2557C15.7349 14.4322 13.9504 15.1429 12 15.1429C10.0496 15.1429 8.26513 14.4322 6.8915 13.2557C3.83056 14.8637 1.62017 17.8717 1.1114 21.4286ZM17.2137 15.1426C19.3413 16.5573 20.8591 18.8107 21.2982 21.4286H2.70176C3.14086 18.8107 4.65872 16.5573 6.78629 15.1426C8.27965 16.1352 10.0735 16.7143 12 16.7143C13.9265 16.7143 15.7203 16.1352 17.2137 15.1426Z" fill="white"/>
</svg>
