<svg width="40" height="41" viewBox="0 0 40 41" fill="none" xmlns="http://www.w3.org/2000/svg">
<rect width="40" height="40" transform="translate(0 0.5)" fill="white"/>
<path fill-rule="evenodd" clip-rule="evenodd" d="M18.635 27.0453C23.0694 27.0453 26.6642 23.4747 26.6642 19.0701C26.6642 14.6656 23.0694 11.095 18.635 11.095C14.2006 11.095 10.6058 14.6656 10.6058 19.0701C10.6058 23.4747 14.2006 27.0453 18.635 27.0453ZM18.635 28.6403C23.9563 28.6403 28.2701 24.3556 28.2701 19.0701C28.2701 13.7847 23.9563 9.5 18.635 9.5C13.3138 9.5 9 13.7847 9 19.0701C9 24.3556 13.3138 28.6403 18.635 28.6403Z" fill="#00397A"/>
<path fill-rule="evenodd" clip-rule="evenodd" d="M24.3415 24.8863C24.655 24.5749 25.1634 24.5749 25.477 24.8863L30.7648 30.1386C31.0784 30.45 31.0784 30.955 30.7648 31.2664C30.4513 31.5779 29.9429 31.5779 29.6293 31.2664L24.3415 26.0142C24.0279 25.7027 24.0279 25.1978 24.3415 24.8863Z" fill="#00397A"/>
</svg>
